<?xml version="1.0" standalone="no"?>
<!DOCTYPE svg PUBLIC "-//W3C//DTD SVG 20010904//EN"
 "http://www.w3.org/TR/2001/REC-SVG-20010904/DTD/svg10.dtd">
<svg version="1.0" xmlns="http://www.w3.org/2000/svg"
 width="180.000000pt" height="180.000000pt" viewBox="0 0 180.000000 180.000000"
 preserveAspectRatio="xMidYMid meet">
<metadata>
Created by potrace 1.16, written by Peter Selinger 2001-2019
</metadata>
<g transform="translate(0.000000,180.000000) scale(0.100000,-0.100000)"
fill="#000000" stroke="none">
<path d="M147 1531 c-26 -29 -37 -59 -52 -138 -28 -148 -15 -372 29 -477 18
-43 57 -71 83 -59 23 11 121 9 133 -3 5 -5 14 -85 20 -179 19 -289 28 -389 35
-408 7 -16 24 -18 189 -18 337 0 370 1 379 16 6 12 11 11 28 -6 14 -14 27 -18
42 -13 12 4 28 6 35 5 16 -2 52 -3 77 -2 11 1 78 2 150 2 85 0 132 4 137 12
22 35 20 403 -2 462 -9 25 -4 37 25 52 10 6 24 26 30 44 13 38 35 50 35 20 0
-12 7 -37 14 -56 l15 -35 36 21 c24 15 38 31 42 51 3 16 12 32 20 35 78 30
100 439 29 548 -14 22 -24 25 -71 25 -29 0 -57 -5 -60 -10 -5 -8 -11 -8 -19 0
-19 15 -223 17 -238 2 -8 -8 -17 -8 -31 -1 -10 6 -32 9 -47 7 -26 -4 -28 -1
-34 39 -8 60 -22 83 -50 83 -21 0 -26 -8 -38 -56 l-13 -56 -50 -5 c-27 -2 -58
-11 -67 -20 -17 -15 -20 -15 -43 7 -14 13 -28 39 -31 59 -12 64 -17 68 -85 67
-63 -1 -70 -5 -83 -48 -9 -28 -31 -21 -47 15 -16 37 -64 50 -85 23 -10 -14
-13 -15 -24 -1 -7 8 -26 15 -41 15 -23 0 -32 -6 -40 -27 l-10 -27 -12 24 c-16
31 -65 40 -84 15 -11 -16 -13 -16 -28 -2 -23 23 -178 22 -198 -2z m64 -1 c16
-9 19 -22 19 -85 l0 -74 -27 2 c-23 2 -28 -3 -34 -33 -9 -37 -3 -93 13 -123 6
-12 16 -16 29 -12 19 6 20 3 17 -66 -2 -55 -7 -74 -20 -83 -51 -32 -90 67 -92
234 -1 129 5 170 34 218 21 34 30 38 61 22z m142 -40 c15 -29 17 -51 13 -120
-3 -47 -8 -103 -12 -126 -4 -32 -2 -42 10 -47 14 -6 16 12 16 158 l0 165 29 0
c26 0 30 -4 35 -40 3 -22 9 -58 12 -81 3 -22 8 -38 10 -36 3 2 10 37 17 78 11
70 14 74 40 77 l27 3 0 -213 c0 -117 -3 -223 -6 -235 -4 -14 -14 -23 -25 -23
-17 0 -19 9 -20 103 l-2 102 -9 -62 c-10 -67 -24 -81 -34 -35 -11 49 -12 48
-13 -8 -1 -30 -4 -65 -7 -77 -8 -29 -44 -31 -44 -3 0 11 -4 20 -10 20 -5 0
-10 -9 -10 -20 0 -23 -22 -27 -39 -7 -6 8 -15 31 -20 53 -8 36 -9 37 -10 9 -2
-56 -12 -76 -35 -73 -21 3 -21 7 -24 241 l-2 238 47 -3 c43 -3 50 -6 66 -38z
m297 8 c0 -43 9 -53 45 -53 29 0 30 -1 35 -60 4 -55 5 -51 10 40 5 94 6 100
28 103 13 2 24 -3 28 -12 5 -12 10 -13 25 -5 31 16 37 4 33 -73 -3 -54 -2 -67
6 -50 11 26 32 29 51 5 10 -12 15 -60 18 -180 l3 -165 -23 4 c-23 3 -24 6 -27
111 -3 102 -12 134 -26 85 -3 -13 -6 -62 -6 -110 0 -79 -2 -88 -19 -88 -26 0
-31 34 -31 238 0 96 -2 173 -4 171 -2 -2 -9 -83 -15 -179 -14 -216 -17 -230
-42 -230 -24 0 -27 6 -38 105 -5 49 -9 65 -10 40 -1 -22 -4 -64 -7 -92 -6 -46
-10 -53 -29 -53 -26 0 -35 30 -35 114 0 28 -7 118 -15 200 -8 82 -12 153 -9
158 3 4 16 8 30 8 20 0 24 -5 24 -32z m492 -31 c-3 -45 0 -58 12 -63 9 -3 16
-16 16 -28 0 -20 1 -19 13 4 7 14 22 26 33 28 34 5 44 -17 35 -81 -4 -31 -4
-62 1 -69 5 -9 8 -4 8 13 0 41 30 130 46 136 8 3 21 0 29 -7 10 -9 15 -9 15
-1 0 6 11 11 25 11 l25 0 -2 -177 c-3 -176 -3 -178 -25 -181 -18 -3 -23 2 -24
20 l0 23 -9 -22 c-5 -13 -16 -23 -24 -23 -16 0 -45 67 -47 108 -1 15 -5 3 -10
-27 -5 -30 -14 -60 -20 -68 -15 -18 -44 -17 -60 3 -11 14 -13 14 -21 0 -12
-22 -35 -20 -48 4 -6 11 -15 79 -21 152 -5 72 -12 134 -14 137 -3 2 -5 -66 -5
-152 0 -150 -1 -157 -20 -157 -12 0 -20 7 -20 18 -1 16 -1 16 -14 0 -41 -54
-70 19 -71 172 0 94 3 121 18 143 18 28 47 37 47 15 0 -10 2 -10 9 0 5 8 22
12 42 10 l34 -3 11 60 c7 33 12 62 13 63 1 2 7 2 14 -1 8 -3 11 -22 9 -60z
m318 -69 c0 -9 3 -9 12 0 30 30 55 2 68 -77 8 -46 8 -45 9 21 l1 67 51 -1 c70
-2 83 -27 83 -163 -1 -148 -32 -232 -69 -181 -11 14 -13 8 -12 -35 1 -39 -4
-55 -18 -65 -10 -8 -22 -14 -27 -14 -4 0 -9 60 -9 133 -1 104 -3 121 -9 79
-14 -98 -44 -138 -69 -94 -8 13 -10 4 -11 -40 0 -46 -4 -59 -19 -68 -11 -5
-22 -10 -25 -10 -3 0 -6 104 -6 230 l0 230 25 0 c14 0 25 -5 25 -12z m-426
-481 c13 -35 -4 -122 -24 -122 -8 0 -17 11 -20 25 -6 23 -7 22 -14 -12 -3 -20
-11 -38 -17 -40 -7 -2 -11 -52 -10 -145 2 -169 -2 -193 -35 -193 l-24 0 0 171
c0 121 -3 170 -11 167 -8 -3 -11 -47 -10 -136 2 -160 -4 -202 -30 -202 -11 0
-19 7 -19 18 -1 16 -2 16 -15 -2 -18 -24 -42 -15 -56 21 -18 46 -23 222 -7
267 16 47 44 69 58 46 6 -10 10 -11 10 -2 0 6 11 12 25 12 24 0 25 3 25 55 l0
55 58 0 c53 0 60 2 71 26 14 31 33 27 45 -9z m-590 -55 c5 -36 8 -38 36 -34
24 3 32 0 39 -19 8 -19 10 -13 10 34 1 57 1 57 31 57 17 0 30 -5 30 -10 0 -7
7 -7 20 0 34 18 41 4 34 -68 -7 -63 -6 -66 10 -49 22 21 30 21 47 0 10 -12 15
-60 17 -180 l4 -163 -26 0 -26 0 0 110 c0 61 -4 110 -9 110 -14 0 -21 -40 -21
-132 0 -79 -2 -88 -19 -88 -26 0 -31 33 -32 239 l-2 176 -14 -175 c-19 -240
-19 -240 -47 -240 -22 0 -24 5 -31 93 -9 101 -11 99 -20 -15 -6 -73 -8 -78
-30 -78 -28 0 -27 -2 -45 243 -6 87 -14 174 -17 193 -5 32 -4 34 24 34 27 0
31 -4 37 -38z m666 -22 c0 -47 3 -60 15 -60 10 0 15 -10 15 -32 l1 -33 13 31
c17 39 33 49 51 34 8 -7 15 -8 15 -3 0 6 34 9 83 8 79 -2 82 -3 96 -30 16 -33
27 -212 17 -279 -6 -41 -10 -47 -29 -44 -21 3 -22 9 -25 111 -1 59 -7 107 -12
107 -5 0 -11 -48 -12 -107 -3 -103 -4 -108 -25 -111 -13 -2 -24 -2 -25 0 0 2
-4 71 -8 153 l-6 150 -2 -152 c-2 -143 -3 -153 -21 -153 -11 0 -22 6 -25 13
-5 10 -7 10 -12 0 -16 -34 -49 -2 -65 62 -7 30 -7 30 -8 3 -4 -111 -69 -98
-72 15 -2 39 -2 38 -9 -14 -8 -64 -15 -79 -36 -79 -26 0 -37 52 -42 203 l-4
147 31 0 31 0 0 -105 c0 -58 4 -105 9 -105 11 0 19 90 9 96 -11 7 -10 114 1
114 4 0 11 27 15 60 5 43 11 60 21 60 12 0 15 -14 15 -60z"/>
</g>
</svg>
